<svg width="1000" height="1000" viewBox="0 0 1000 1000" fill="none" xmlns="http://www.w3.org/2000/svg">
<g clip-path="url(#clip0_22_2)">
<g clip-path="url(#clip1_22_2)">
<mask id="mask0_22_2" style="mask-type:luminance" maskUnits="userSpaceOnUse" x="0" y="0" width="1000" height="1000">
<path d="M650 0H350C156.7 0 0 156.7 0 350V650C0 843.3 156.7 1000 350 1000H650C843.3 1000 1000 843.3 1000 650V350C1000 156.7 843.3 0 650 0Z" fill="white"/>
</mask>
<g mask="url(#mask0_22_2)">
<path d="M1000 0H0V1000H1000V0Z" fill="#F72585"/>
<g clip-path="url(#clip2_22_2)">
<g clip-path="url(#clip3_22_2)">
<path d="M263.299 391.753H170.928V252.474H442.268V237.32H224.33V164.433H764.124V237.32H544.742V252.474H821.856V391.753H725.155V315.979H544.742V422.784H442.268V315.979H263.299V391.753ZM560.619 385.979V331.856H707.113V385.979H560.619ZM280.619 385.979V331.856H427.113V385.979H280.619ZM362.887 612.577V585.876C324.88 603.196 284.708 618.11 242.371 630.619H729.485V711.443C729.485 731.65 726.838 747.526 721.546 759.072C716.735 770.137 707.113 779.038 692.68 785.773C678.247 792.028 662.371 795.636 645.052 796.598C628.213 798.041 609.45 798.523 588.763 798.041C585.395 785.533 580.343 772.062 573.608 757.629C566.873 742.715 560.378 729.966 554.124 719.382C565.189 719.863 577.217 720.103 590.206 720.103C603.677 720.103 612.337 720.103 616.186 720.103C624.364 720.103 628.454 716.976 628.454 710.722V699.175H504.33V829.072H403.299V699.175H240.928V630.619C233.23 633.024 225.533 635.189 217.835 637.114C210.137 639.038 202.44 640.962 194.742 642.887C190.412 631.34 183.917 617.629 175.258 601.753C166.598 585.876 158.179 572.887 150 562.784C198.591 554.124 245.017 540.894 289.278 523.093C333.539 505.292 371.787 484.845 404.021 461.753H264.742V404.742H427.835V442.99C430.24 440.585 432.646 438.179 435.052 435.773C437.938 433.368 440.343 431.203 442.268 429.278H536.083C543.78 436.014 551.959 442.749 560.619 449.485V404.742H723.711V461.753H577.938C615.945 487.732 657.801 508.179 703.505 523.093C749.691 538.007 796.358 548.832 843.505 555.567C833.402 567.595 823.78 581.546 814.639 597.423C805.979 613.299 798.523 627.492 792.268 640C767.251 634.708 740.55 627.492 712.165 618.351C684.261 609.21 656.838 598.626 629.897 586.598V612.577H362.887ZM551.237 546.186C528.144 532.234 508.66 517.56 492.784 502.165C485.086 509.863 476.426 517.32 466.804 524.536C457.182 531.753 446.838 538.969 435.773 546.186H551.237Z" fill="black"/>
</g>
</g>
</g>
</g>
<g clip-path="url(#clip4_22_2)">
<mask id="mask1_22_2" style="mask-type:luminance" maskUnits="userSpaceOnUse" x="0" y="0" width="1000" height="1000">
<path d="M650 0H350C156.7 0 0 156.7 0 350V650C0 843.3 156.7 1000 350 1000H650C843.3 1000 1000 843.3 1000 650V350C1000 156.7 843.3 0 650 0Z" fill="white"/>
</mask>
<g mask="url(#mask1_22_2)">
<path d="M1000 0H0V1000H1000V0Z" fill="#F72585"/>
<g clip-path="url(#clip5_22_2)">
<g clip-path="url(#clip6_22_2)">
<path d="M263.299 391.753H170.928V252.474H442.268V237.32H224.33V164.433H764.124V237.32H544.742V252.474H821.856V391.753H725.155V315.979H544.742V422.784H442.268V315.979H263.299V391.753ZM560.619 385.979V331.856H707.113V385.979H560.619ZM280.619 385.979V331.856H427.113V385.979H280.619ZM362.887 612.577V585.876C324.88 603.196 284.708 618.11 242.371 630.619H729.485V711.443C729.485 731.65 726.838 747.526 721.546 759.072C716.735 770.137 707.113 779.038 692.68 785.773C678.247 792.028 662.371 795.636 645.052 796.598C628.213 798.041 609.45 798.523 588.763 798.041C585.395 785.533 580.343 772.062 573.608 757.629C566.873 742.715 560.378 729.966 554.124 719.382C565.189 719.863 577.217 720.103 590.206 720.103C603.677 720.103 612.337 720.103 616.186 720.103C624.364 720.103 628.454 716.976 628.454 710.722V699.175H504.33V829.072H403.299V699.175H240.928V630.619C233.23 633.024 225.533 635.189 217.835 637.114C210.137 639.038 202.44 640.962 194.742 642.887C190.412 631.34 183.917 617.629 175.258 601.753C166.598 585.876 158.179 572.887 150 562.784C198.591 554.124 245.017 540.894 289.278 523.093C333.539 505.292 371.787 484.845 404.021 461.753H264.742V404.742H427.835V442.99C430.24 440.585 432.646 438.179 435.052 435.773C437.938 433.368 440.343 431.203 442.268 429.278H536.083C543.78 436.014 551.959 442.749 560.619 449.485V404.742H723.711V461.753H577.938C615.945 487.732 657.801 508.179 703.505 523.093C749.691 538.007 796.358 548.832 843.505 555.567C833.402 567.595 823.78 581.546 814.639 597.423C805.979 613.299 798.523 627.492 792.268 640C767.251 634.708 740.55 627.492 712.165 618.351C684.261 609.21 656.838 598.626 629.897 586.598V612.577H362.887ZM551.237 546.186C528.144 532.234 508.66 517.56 492.784 502.165C485.086 509.863 476.426 517.32 466.804 524.536C457.182 531.753 446.838 538.969 435.773 546.186H551.237Z" fill="black"/>
</g>
</g>
</g>
</g>
</g>
<defs>
<clipPath id="clip0_22_2">
<rect width="1000" height="1000" fill="white"/>
</clipPath>
<clipPath id="clip1_22_2">
<rect width="1000" height="1000" fill="white"/>
</clipPath>
<clipPath id="clip2_22_2">
<rect width="700" height="671.134" fill="white" transform="translate(150 164.433)"/>
</clipPath>
<clipPath id="clip3_22_2">
<rect width="700" height="671.134" fill="white" transform="translate(150 164.433)"/>
</clipPath>
<clipPath id="clip4_22_2">
<rect width="1000" height="1000" fill="white"/>
</clipPath>
<clipPath id="clip5_22_2">
<rect width="700" height="671.134" fill="white" transform="translate(150 164.433)"/>
</clipPath>
<clipPath id="clip6_22_2">
<rect width="700" height="671.134" fill="white" transform="translate(150 164.433)"/>
</clipPath>
</defs>
</svg>
