<svg xmlns="http://www.w3.org/2000/svg" version="1.1" xmlns:xlink="http://www.w3.org/1999/xlink" width="1000" height="1000"><style>
    #light-icon {
      display: inline;
    }
    #dark-icon {
      display: none;
    }

    @media (prefers-color-scheme: dark) {
      #light-icon {
        display: none;
      }
      #dark-icon {
        display: inline;
      }
    }
  </style><g id="light-icon"><svg xmlns="http://www.w3.org/2000/svg" version="1.1" xmlns:xlink="http://www.w3.org/1999/xlink" width="1000" height="1000"><g clip-path="url(#SvgjsClipPath2871)"><rect width="1000" height="1000" fill="#f72585"></rect><g transform="matrix(7.216494845360825,0,0,7.216494845360825,150,164.43298969072163)"><svg xmlns="http://www.w3.org/2000/svg" version="1.1" xmlns:xlink="http://www.w3.org/1999/xlink" width="97" height="93"><svg width="97" height="93" viewBox="0 0 97 93" fill="none" xmlns="http://www.w3.org/2000/svg">
<path d="M15.7 31.5H2.89999V12.2H40.5V10.1H10.3V2.6226e-06H85.1V10.1H54.7V12.2H93.1V31.5H79.7V21H54.7V35.8H40.5V21H15.7V31.5ZM56.9 30.7V23.2H77.2V30.7H56.9ZM18.1 30.7V23.2H38.4V30.7H18.1ZM29.5 62.1V58.4C24.2333 60.8 18.6667 62.8667 12.8 64.6H80.3V75.8C80.3 78.6 79.9333 80.8 79.2 82.4C78.5333 83.9333 77.2 85.1667 75.2 86.1C73.2 86.9667 71 87.4667 68.6 87.6C66.2667 87.8 63.6667 87.8667 60.8 87.8C60.3333 86.0667 59.6333 84.2 58.7 82.2C57.7667 80.1333 56.8667 78.3667 56 76.9C57.5333 76.9667 59.2 77 61 77C62.8667 77 64.0667 77 64.6 77C65.7333 77 66.3 76.5667 66.3 75.7V74.1H49.1V92.1H35.1V74.1H12.6V64.6C11.5333 64.9333 10.4667 65.2333 9.39999 65.5C8.33333 65.7667 7.26666 66.0333 6.19999 66.3C5.59999 64.7 4.69999 62.8 3.49999 60.6C2.29999 58.4 1.13333 56.6 -5.94556e-06 55.2C6.73333 54 13.1667 52.1667 19.3 49.7C25.4333 47.2333 30.7333 44.4 35.2 41.2H15.9V33.3H38.5V38.6C38.8333 38.2667 39.1667 37.9333 39.5 37.6C39.9 37.2667 40.2333 36.9667 40.5 36.7H53.5C54.5667 37.6333 55.7 38.5667 56.9 39.5V33.3H79.5V41.2H59.3C64.5667 44.8 70.3667 47.6333 76.7 49.7C83.1 51.7667 89.5667 53.2667 96.1 54.2C94.7 55.8667 93.3667 57.8 92.1 60C90.9 62.2 89.8667 64.1667 89 65.9C85.5333 65.1667 81.8333 64.1667 77.9 62.9C74.0333 61.6333 70.2333 60.1667 66.5 58.5V62.1H29.5ZM55.6 52.9C52.4 50.9667 49.7 48.9333 47.5 46.8C46.4333 47.8667 45.2333 48.9 43.9 49.9C42.5667 50.9 41.1333 51.9 39.6 52.9H55.6Z" fill="black"></path>
</svg></svg></g></g><defs><clipPath id="SvgjsClipPath2871"><rect width="1000" height="1000" x="0" y="0" rx="350" ry="350"></rect></clipPath></defs></svg></g><g id="dark-icon"><svg xmlns="http://www.w3.org/2000/svg" version="1.1" xmlns:xlink="http://www.w3.org/1999/xlink" width="1000" height="1000"><g clip-path="url(#SvgjsClipPath2872)"><rect width="1000" height="1000" fill="#f72585"></rect><g transform="matrix(7.216494845360825,0,0,7.216494845360825,150,164.43298969072163)"><svg xmlns="http://www.w3.org/2000/svg" version="1.1" xmlns:xlink="http://www.w3.org/1999/xlink" width="97" height="93"><svg width="97" height="93" viewBox="0 0 97 93" fill="none" xmlns="http://www.w3.org/2000/svg">
<path d="M15.7 31.5H2.89999V12.2H40.5V10.1H10.3V2.6226e-06H85.1V10.1H54.7V12.2H93.1V31.5H79.7V21H54.7V35.8H40.5V21H15.7V31.5ZM56.9 30.7V23.2H77.2V30.7H56.9ZM18.1 30.7V23.2H38.4V30.7H18.1ZM29.5 62.1V58.4C24.2333 60.8 18.6667 62.8667 12.8 64.6H80.3V75.8C80.3 78.6 79.9333 80.8 79.2 82.4C78.5333 83.9333 77.2 85.1667 75.2 86.1C73.2 86.9667 71 87.4667 68.6 87.6C66.2667 87.8 63.6667 87.8667 60.8 87.8C60.3333 86.0667 59.6333 84.2 58.7 82.2C57.7667 80.1333 56.8667 78.3667 56 76.9C57.5333 76.9667 59.2 77 61 77C62.8667 77 64.0667 77 64.6 77C65.7333 77 66.3 76.5667 66.3 75.7V74.1H49.1V92.1H35.1V74.1H12.6V64.6C11.5333 64.9333 10.4667 65.2333 9.39999 65.5C8.33333 65.7667 7.26666 66.0333 6.19999 66.3C5.59999 64.7 4.69999 62.8 3.49999 60.6C2.29999 58.4 1.13333 56.6 -5.94556e-06 55.2C6.73333 54 13.1667 52.1667 19.3 49.7C25.4333 47.2333 30.7333 44.4 35.2 41.2H15.9V33.3H38.5V38.6C38.8333 38.2667 39.1667 37.9333 39.5 37.6C39.9 37.2667 40.2333 36.9667 40.5 36.7H53.5C54.5667 37.6333 55.7 38.5667 56.9 39.5V33.3H79.5V41.2H59.3C64.5667 44.8 70.3667 47.6333 76.7 49.7C83.1 51.7667 89.5667 53.2667 96.1 54.2C94.7 55.8667 93.3667 57.8 92.1 60C90.9 62.2 89.8667 64.1667 89 65.9C85.5333 65.1667 81.8333 64.1667 77.9 62.9C74.0333 61.6333 70.2333 60.1667 66.5 58.5V62.1H29.5ZM55.6 52.9C52.4 50.9667 49.7 48.9333 47.5 46.8C46.4333 47.8667 45.2333 48.9 43.9 49.9C42.5667 50.9 41.1333 51.9 39.6 52.9H55.6Z" fill="black"></path>
</svg></svg></g></g><defs><clipPath id="SvgjsClipPath2872"><rect width="1000" height="1000" x="0" y="0" rx="350" ry="350"></rect></clipPath></defs></svg></g></svg>